HIERARCHY
ROOT hip
{
  OFFSET 0 0 0
  CHANNELS 6 Xposition Yposition Zposition Zrotation Yrotation Xrotation
  JOINT abdomen
  {
    OFFSET 0 20.6881 -0.73152
    CHANNELS 3 Zrotation Xrotation Yrotation
    JOINT chest
    {
      OFFSET 0 11.7043 -0.48768
      CHANNELS 3 Zrotation Xrotation Yrotation
      JOINT neck
      {
        OFFSET 0 22.1894 -2.19456
        CHANNELS 3 Zrotation Xrotation Yrotation
        JOINT head
        {
          OFFSET -0.24384 7.07133 1.2192
          CHANNELS 3 Zrotation Xrotation Yrotation
          JOINT leftEye
          {
            OFFSET 4.14528 8.04674 8.04672
            CHANNELS 3 Zrotation Xrotation Yrotation
            End Site
            {
              OFFSET 1 0 0
            }
          }
          JOINT rightEye
          {
            OFFSET -3.6576 8.04674 8.04672
            CHANNELS 3 Zrotation Xrotation Yrotation
            End Site
            {
              OFFSET 1 0 0
            }
          }
        }
      }
      JOINT rCollar
      {
        OFFSET -2.68224 19.2634 -4.8768
        CHANNELS 3 Zrotation Xrotation Yrotation
        JOINT rShldr
        {
          OFFSET -8.77824 -1.95073 1.46304
          CHANNELS 3 Zrotation Xrotation Yrotation
          JOINT rForeArm
          {
            OFFSET -28.1742 -1.7115 0.48768
            CHANNELS 3 Zrotation Xrotation Yrotation
            JOINT rHand
            {
              OFFSET -22.5879 0.773209 7.07136
              CHANNELS 3 Zrotation Xrotation Yrotation
              JOINT rThumb1
              {
                OFFSET -1.2192 -0.487915 3.41376
                CHANNELS 3 Zrotation Xrotation Yrotation
                JOINT rThumb2
                {
                  OFFSET -3.37035 -0.52449 3.41376
                  CHANNELS 3 Zrotation Xrotation Yrotation
                  End Site
                  {
                    OFFSET -1.78271 -1.18214 1.43049
                  }
                }
              }
              JOINT rIndex1
              {
                OFFSET -7.75947 0.938293 5.60832
                CHANNELS 3 Zrotation Xrotation Yrotation
                JOINT rIndex2
                {
                  OFFSET -2.54057 -0.884171 1.56538
                  CHANNELS 3 Zrotation Xrotation Yrotation
                  End Site
                  {
                    OFFSET -1.62519 -0.234802 1.16502
                  }
                }
              }
              JOINT rMid1
              {
                OFFSET -8.24714 1.18213 3.41376
                CHANNELS 3 Zrotation Xrotation Yrotation
                JOINT rMid2
                {
                  OFFSET -3.10165 -0.590103 1.0647
                  CHANNELS 3 Zrotation Xrotation Yrotation
                  End Site
                  {
                    OFFSET -2.48547 -0.328903 0.83742
                  }
                }
              }
              JOINT rRing1
              {
                OFFSET -8.82822 0.546677 1.51678
                CHANNELS 3 Zrotation Xrotation Yrotation
                JOINT rRing2
                {
                  OFFSET -2.60934 -0.819778 -0.0198488
                  CHANNELS 3 Zrotation Xrotation Yrotation
                  End Site
                  {
                    OFFSET -2.33842 -0.294052 0.168128
                  }
                }
              }
              JOINT rPinky1
              {
                OFFSET -8.27202 -0.0477905 -0.4584
                CHANNELS 3 Zrotation Xrotation Yrotation
                JOINT rPinky2
                {
                  OFFSET -1.82734 -0.647385 -0.700984
                  CHANNELS 3 Zrotation Xrotation Yrotation
                  End Site
                  {
                    OFFSET -1.69225 -0.51767 -0.607171
                  }
                }
              }
            }
          }
        }
      }
      JOINT lCollar
      {
        OFFSET 2.68224 19.2634 -4.8768
        CHANNELS 3 Zrotation Xrotation Yrotation
        JOINT lShldr
        {
          OFFSET 8.77824 -1.95073 1.46304
          CHANNELS 3 Zrotation Xrotation Yrotation
          JOINT lForeArm
          {
            OFFSET 28.1742 -1.7115 0.48768
            CHANNELS 3 Zrotation Xrotation Yrotation
            JOINT lHand
            {
              OFFSET 22.5879 0.773209 7.07136
              CHANNELS 3 Zrotation Xrotation Yrotation
              JOINT lThumb1
              {
                OFFSET 1.2192 -0.487915 3.41376
                CHANNELS 3 Zrotation Xrotation Yrotation
                JOINT lThumb2
                {
                  OFFSET 3.37035 -0.52449 3.41376
                  CHANNELS 3 Zrotation Xrotation Yrotation
                  End Site
                  {
                    OFFSET 1.78271 -1.18214 1.43049
                  }
                }
              }
              JOINT lIndex1
              {
                OFFSET 7.75947 0.938293 5.60832
                CHANNELS 3 Zrotation Xrotation Yrotation
                JOINT lIndex2
                {
                  OFFSET 2.54057 -0.884171 1.56538
                  CHANNELS 3 Zrotation Xrotation Yrotation
                  End Site
                  {
                    OFFSET 1.62519 -0.234802 1.16502
                  }
                }
              }
              JOINT lMid1
              {
                OFFSET 8.24714 1.18213 3.41376
                CHANNELS 3 Zrotation Xrotation Yrotation
                JOINT lMid2
                {
                  OFFSET 3.10165 -0.590103 1.0647
                  CHANNELS 3 Zrotation Xrotation Yrotation
                  End Site
                  {
                    OFFSET 2.48547 -0.328903 0.83742
                  }
                }
              }
              JOINT lRing1
              {
                OFFSET 8.82822 0.546677 1.51678
                CHANNELS 3 Zrotation Xrotation Yrotation
                JOINT lRing2
                {
                  OFFSET 2.60934 -0.819778 -0.0198488
                  CHANNELS 3 Zrotation Xrotation Yrotation
                  End Site
                  {
                    OFFSET 2.33842 -0.294052 0.168128
                  }
                }
              }
              JOINT lPinky1
              {
                OFFSET 8.27202 -0.0477905 -0.4584
                CHANNELS 3 Zrotation Xrotation Yrotation
                JOINT lPinky2
                {
                  OFFSET 1.82734 -0.647385 -0.700984
                  CHANNELS 3 Zrotation Xrotation Yrotation
                  End Site
                  {
                    OFFSET 1.69225 -0.51767 -0.607171
                  }
                }
              }
            }
          }
        }
      }
    }
  }
  JOINT rButtock
  {
    OFFSET -8.77824 4.35084 1.2192
    CHANNELS 3 Zrotation Xrotation Yrotation
    JOINT rThigh
    {
      OFFSET 0 -1.70687 -2.19456
      CHANNELS 3 Zrotation Xrotation Yrotation
      JOINT rShin
      {
        OFFSET 0 -36.8199 0.73152
        CHANNELS 3 Zrotation Xrotation Yrotation
        JOINT rFoot
        {
          OFFSET 0.73152 -45.1104 -5.12064
          CHANNELS 3 Zrotation Xrotation Yrotation
          End Site
          {
            OFFSET -1.1221 -3.69964 12.103
          }
        }
      }
    }
  }
  JOINT lButtock
  {
    OFFSET 8.77824 4.35084 1.2192
    CHANNELS 3 Zrotation Xrotation Yrotation
    JOINT lThigh
    {
      OFFSET 0 -1.70687 -2.19456
      CHANNELS 3 Zrotation Xrotation Yrotation
      JOINT lShin
      {
        OFFSET 0 -36.8199 0.73152
        CHANNELS 3 Zrotation Xrotation Yrotation
        JOINT lFoot
        {
          OFFSET -0.73152 -45.1104 -5.12064
          CHANNELS 3 Zrotation Xrotation Yrotation
          End Site
          {
            OFFSET 1.1221 -3.69964 12.103
          }
        }
      }
    }
  }
}
MOTION
Frames:	4
Frame Time:	0.00833333
15.8828 83.0696 183.007 0.0 0.0 0.0 -3.29161 -0.002001 -0.0897121 -0.910492 0.0108274 -0.157566 -2.91522e-14 0.0 -4.47265e-16 -8.65925e-14 9.54166e-15 -1.04828e-15 -0.0 0.0 0.0 -0.0 0.0 0.0 -1.45131e-14 4.65902e-18 -4.96962e-17 -3.02673e-13 2.29845e-16 -4.17448e-15 -5.23847e-12 1.58193e-12 6.36111e-15 -6.00972e-11 -1.56103e-12 -9.25541e-13 -1.41734e-10 4.26689e-14 -1.95604e-12 -2.44776e-10 7.31528e-14 -3.39763e-12 -1.41726e-10 4.29375e-14 -1.97194e-12 7.73091 5.47488 0.417314 -1.41733e-10 4.34345e-14 -1.96876e-12 2.90554 0.965183 0.102902 -1.41726e-10 4.30369e-14 -1.96717e-12 10.2786 0.731801 0.0259123 -1.41736e-10 4.29375e-14 -1.96558e-12 2.22167 -0.733487 -0.20892 -1.46099e-14 7.5709e-18 -3.47873e-16 -3.06189e-13 1.18028e-16 -5.56597e-15 -5.26471e-12 -1.56483e-12 -3.81667e-14 -6.00607e-11 1.58752e-12 -8.5875e-13 -1.41707e-10 4.91166e-14 -1.95286e-12 -2.44724e-10 7.95139e-14 -3.35389e-12 -1.41714e-10 5.04913e-14 -1.9465e-12 -7.73091 5.47488 -0.417314 -1.41707e-10 4.92986e-14 -1.94968e-12 -2.90554 0.965183 -0.102902 -1.41718e-10 4.9398e-14 -1.94729e-12 -10.2786 0.731801 -0.0259123 -1.41711e-10 4.8901e-14 -1.94968e-12 -2.22167 -0.733487 0.20892 -2.03217e-16 0.0 -3.88251e-19 -2.14078 -1.93291 0.0183716 -0.00780689 -2.07877 -0.0636275 -0.355868 4.00069 0.117269 2.03217e-16 0.0 3.88251e-19 -2.88105 -9.67714 0.339003 -0.0100189 11.9463 -0.261542 0.458848 -2.28003 -0.00599037
9.69435 80.2312 173.38 -161.006 -86.0594 178.693 -3.59242 -8.1462 0.207749 -1.45734 2.65503 -0.0164925 0.209359 -1.79377 -0.0143758 4.58195 0.776061 -0.43753 -0.0 0.0 0.0 -0.0 0.0 0.0 1.50547e-14 -2.63297e-13 -3.72061e-15 21.1399 12.8949 0.0846509 -4.15873 -1.87681 6.51038 0.0171652 -2.9413 -0.411498 -2.34236e-11 1.37228e-10 -5.65006e-10 -3.63066e-11 2.38405e-10 -9.76911e-10 -2.34152e-11 1.37227e-10 -5.65019e-10 7.73091 5.47488 0.417314 -2.34246e-11 1.37225e-10 -5.6501e-10 2.90554 0.965183 0.102902 -2.34173e-11 1.37226e-10 -5.65013e-10 10.2786 0.731801 0.0259123 -2.34279e-11 1.37228e-10 -5.65011e-10 2.22167 -0.733487 -0.20892 1.49496e-14 -2.63295e-13 -3.99161e-15 -19.1724 16.6927 -0.82325 4.46034 -2.07623 -6.91295 -0.240768 -10.9233 1.43638 -2.94313e-10 -3.86288e-12 6.57334e-10 -5.27765e-10 -5.82693e-12 1.12944e-09 -2.94319e-10 -3.86222e-12 6.57337e-10 -7.73091 5.47488 -0.417314 -2.94314e-10 -3.86263e-12 6.5734e-10 -2.90554 0.965183 -0.102902 -2.94321e-10 -3.86291e-12 6.5734e-10 -10.2786 0.731801 -0.0259123 -2.94315e-10 -3.86247e-12 6.57338e-10 -2.22167 -0.733487 0.20892 -2.03217e-16 0.0 -3.88251e-19 -0.854524 -8.80238 5.26957 0.0165498 4.41339 0.12745 -0.955443 0.725321 -3.75196 2.03217e-16 0.0 3.88251e-19 2.67363 -9.95505 0.367365 -0.0170782 12.4461 -0.323258 0.57011 -2.50105 -0.0111602
9.69428 80.2277 173.388 -160.972 -86.1114 178.669 -3.81019 -16.7565 0.540265 -2.05507 5.44736 0.133077 0.44303 -3.69678 -0.0197912 9.39535 1.62617 -0.888807 -0.0 0.0 0.0 -0.0 0.0 0.0 4.74598e-14 -5.50832e-13 -7.5445e-15 43.4594 26.5002 0.209272 -8.07194 -3.76359 13.3811 -0.0109669 -5.99815 -0.842888 1.22957e-10 2.92887e-10 -1.20136e-09 2.21201e-10 5.08748e-10 -2.07699e-09 1.22966e-10 2.92883e-10 -1.20137e-09 7.73091 5.47488 0.417314 1.22953e-10 2.92879e-10 -1.20136e-09 2.90554 0.965183 0.102902 1.22961e-10 2.92883e-10 -1.20136e-09 10.2786 0.731801 0.0259123 1.2295e-10 2.92886e-10 -1.20136e-09 2.22167 -0.733487 -0.20892 4.73449e-14 -5.50831e-13 -7.78677e-15 -38.8424 34.284 -1.9679 8.61439 -4.15467 -14.2192 0.144176 -22.4268 3.13658 -4.71349e-10 -8.7966e-12 1.40979e-09 -8.5574e-10 -1.32522e-11 2.42229e-09 -4.71354e-10 -8.79677e-12 1.40979e-09 -7.73091 5.47488 -0.417314 -4.7135e-10 -8.79633e-12 1.4098e-09 -2.90554 0.965183 -0.102902 -4.71354e-10 -8.79701e-12 1.4098e-09 -10.2786 0.731801 -0.0259123 -4.71349e-10 -8.79558e-12 1.4098e-09 -2.22167 -0.733487 0.20892 -2.03217e-16 0.0 -3.88251e-19 1.91611 -15.8509 11.1225 -0.00551528 11.2719 0.335039 -2.06887 -2.70651 -7.85076 2.03217e-16 0.0 3.88251e-19 8.54625 -10.2484 0.397366 -0.0233331 12.9736 -0.388727 0.68771 -2.73424 -0.0166402
9.69053 80.2254 173.394 -161.533 -86.1274 179.206 -3.92054 -24.4322 0.874718 -2.59035 7.94336 0.268281 0.625365 -5.38132 -0.0432971 13.7814 2.32764 -1.31355 -0.0 0.0 0.0 -0.0 0.0 0.0 7.41901e-14 -7.899e-13 -1.10624e-14 63.2781 38.6843 0.317126 -11.2195 -5.34023 19.6092 -0.0765325 -8.82208 -1.24763 2.13197e-10 4.11599e-10 -1.69111e-09 3.80633e-10 7.15069e-10 -2.92394e-09 2.13206e-10 4.11594e-10 -1.69111e-09 7.73091 5.47488 0.417314 2.13191e-10 4.11587e-10 -1.69109e-09 2.90554 0.965183 0.102902 2.132e-10 4.11593e-10 -1.69111e-09 10.2786 0.731801 0.0259123 2.13189e-10 4.11597e-10 -1.6911e-09 2.22167 -0.733487 -0.20892 7.40685e-14 -7.899e-13 -1.12791e-14 -55.4022 50.0245 -3.68369 11.9079 -5.86676 -20.8393 1.18108 -32.6793 5.02866 -5.99525e-10 -1.16869e-11 1.97591e-09 -1.09385e-09 -1.76398e-11 3.39503e-09 -5.99528e-10 -1.16876e-11 1.9759e-09 -7.73091 5.47488 -0.417314 -5.99526e-10 -1.16865e-11 1.97592e-09 -2.90554 0.965183 -0.102902 -5.99526e-10 -1.16875e-11 1.97591e-09 -10.2786 0.731801 -0.0259123 -5.99524e-10 -1.16852e-11 1.97591e-09 -2.22167 -0.733487 0.20892 -2.03217e-16 0.0 -3.88251e-19 5.69078 -21.7753 16.817 -0.0692245 17.397 0.532758 -3.47687 -5.70375 -11.5469 2.03217e-16 0.0 3.88251e-19 13.7838 -10.5109 0.424263 -0.0278748 13.4457 -0.447492 0.792513 -2.94307 -0.0215058
